HIERARCHY
ROOT ui
{
	 OFFSET 0 0 0
	 CHANNELS 3 XPosition YPosition Z Position
	 EndSite
	 {
	 OFFSET 0 -1 0
	 }
}
ROOT li
{
	 OFFSET 0 0 0
	 CHANNELS 3 XPosition YPosition Z Position
	 EndSite
	 {
	 OFFSET 0 -1 0
	 }
}
ROOT ul
{
	 OFFSET 0 0 0
	 CHANNELS 3 XPosition YPosition Z Position
	 EndSite
	 {
	 OFFSET 0 -1 0
	 }
}
ROOT ll
{
	 OFFSET 0 0 0
	 CHANNELS 3 XPosition YPosition Z Position
	 EndSite
	 {
	 OFFSET 0 -1 0
	 }
}
ROOT tt
{
	 OFFSET 0 0 0
	 CHANNELS 3 XPosition YPosition Z Position
	 EndSite
	 {
	 OFFSET 0 -1 0
	 }
}
ROOT tb
{
	 OFFSET 0 0 0
	 CHANNELS 3 XPosition YPosition Z Position
	 EndSite
	 {
	 OFFSET 0 -1 0
	 }
}
ROOT td
{
	 OFFSET 0 0 0
	 CHANNELS 3 XPosition YPosition Z Position
	 EndSite
	 {
	 OFFSET 0 -1 0
	 }
}
ROOT v
{
	 OFFSET 0 0 0
	 CHANNELS 3 XPosition YPosition Z Position
	 EndSite
	 {
	 OFFSET 0 -1 0
	 }
}
ROOT bn
{
	 OFFSET 0 0 0
	 CHANNELS 3 XPosition YPosition Z Position
	 EndSite
	 {
	 OFFSET 0 -1 0
	 }
}
MOTION
Frames: 29
Frame Time: 0.002
0.002763174057006836	2.6521798968315123E-4	0		0.49280429077148435	-2.476907470703125	0		-1.062777099609375	0.040327613830566406	0		-0.697317138671875	-2.477088623046875	0		2.765173095703125	-0.4148150634765625	0		3.816658203125	-0.45867922973632813	0		4.96803759765625	-0.1569205780029297	0		6.01464306640625	0.5153557739257812	0		-0.20903955078125	5.8888466796875	0		
0.01158955478668213	-0.001000115990638733	0		0.46974505615234374	-2.468724365234375	0		-1.0648079833984374	0.049223709106445315	0		-0.6825498046875	-2.481433837890625	0		2.799545654296875	-0.3774556579589844	0		3.82808935546875	-0.4170018310546875	0		4.9888759765625	-0.15738783264160155	0		6.0186005859375	0.5231212768554687	0		-0.17606431579589843	5.8952421875	0		
0.0024333670139312746	3.1610000878572464E-6	0		0.521436279296875	-2.4775869140625	0		-0.9890005493164062	0.047033111572265626	0		-0.6528706665039062	-2.490975830078125	0		2.810794677734375	-0.34775991821289065	0		3.8386875	-0.4333094787597656	0		5.0145595703125	-0.16791729736328126	0		6.0143203125	0.5150079956054687	0		-0.17616139221191407	5.89711962890625	0		
0.0022550170421600344	-1.0600999742746353E-4	0		0.48336639404296877	-2.468163818359375	0		-1.069212890625	0.04506577682495117	0		-0.695124267578125	-2.494484130859375	0		2.862046875	-0.317619873046875	0		3.8547158203125	-0.4186817932128906	0		5.01925146484375	-0.17714230346679688	0		6.0090341796875	0.506915283203125	0		-0.19242562866210938	5.88723974609375	0		
0.0020738940238952635	-2.0002999901771545E-4	0		0.5169716186523438	-2.4817431640625	0		-0.9944152221679687	0.04292072677612305	0		-0.6895165405273438	-2.507654541015625	0		2.882257080078125	-0.2900302734375	0		3.874669921875	-0.40910089111328124	0		5.0300673828125	-0.17744520568847658	0		6.0088583984375	0.5067577514648437	0		-0.22662608337402343	5.8816298828125	0		
0.0018936400413513185	-2.7840200066566465E-4	0		0.464866455078125	-2.474091064453125	0		-1.0655169677734375	0.048860286712646486	0		-0.680869140625	-2.517851318359375	0		2.903482421875	-0.26144338989257815	0		3.889696044921875	-0.39443930053710935	0		5.04295458984375	-0.17276791381835938	0		6.0135703125	0.4985381774902344	0		-0.17651487731933593	5.89684375	0		
0.0017173810005187988	-3.4058499336242677E-4	0		0.5226386108398438	-2.475982177734375	0		-1.065692626953125	0.04881171798706055	0		-0.683105712890625	-2.519876220703125	0		2.9246982421875	-0.23384341430664063	0		3.89445751953125	-0.3986216125488281	0		5.06173193359375	-0.17616372680664064	0		6.01362744140625	0.514397705078125	0		-0.14453399658203125	5.9023291015625	0		
0.0015477670431137086	-3.8596799969673156E-4	0		0.4685267333984375	-2.46926806640625	0		-0.9898834228515625	0.046701122283935546	0		-0.6445968017578125	-2.54046435546875	0		2.931666748046875	-0.22402809143066407	0		3.920677734375	-0.3710908813476563	0		5.06156005859375	-0.17627639770507814	0		6.0083515625	0.5063442077636718	0		-0.1767071075439453	5.89674072265625	0		
-0.007469759941101074	0.009712931632995605	0		0.5181853637695313	-2.48001220703125	0		-0.9900433959960937	0.046686534881591794	0		-0.695687255859375	-2.53275927734375	0		2.949856689453125	-0.1993543701171875	0		3.91339892578125	-0.3790718078613281	0		5.06549609375	-0.16943070983886718	0		6.00819775390625	0.5062345886230468	0		-0.17777334594726563	5.8977294921875	0		
0.0012380640506744385	-4.2473599314689635E-4	0		0.4640790405273437	-2.47426220703125	0		-1.066169921875	0.04877083969116211	0		-0.6123490600585938	-2.566952392578125	0		2.94586181640625	-0.1883495635986328	0		3.902473388671875	-0.3629810791015625	0		5.08017236328125	-0.18172288513183593	0		6.00005615234375	0.5062556457519531	0		-0.21192378234863282	5.89220556640625	0		
-0.0019388760328292846	-0.003375899076461792	0		0.49086566162109374	-2.477646728515625	0		-1.0663037109375	0.04879104614257813	0		-0.6786112670898438	-2.57299755859375	0		2.950037841796875	-0.16644273376464844	0		3.938145263671875	-0.3765394287109375	0		5.067236328125	-0.16760188293457032	0		6.00481396484375	0.49811004638671874	0		-0.1769395751953125	5.89471533203125	0		
0.012142651557922364	0.010444101333618163	0		0.4718900146484375	-2.465362548828125	0		-1.05732080078125	0.05569681167602539	0		-0.6078824462890625	-2.581979248046875	0		2.975844970703125	-0.17183006286621094	0		3.92766650390625	-0.3314170837402344	0		5.0812158203125	-0.16084674072265626	0		6.0047041015625	0.49805340576171875	0		-0.1769799499511719	5.89473876953125	0		
8.9096599817276E-4	-3.6354199051856994E-4	0		0.4857775573730469	-2.46453369140625	0		-1.06651513671875	0.04887295532226563	0		-0.695128662109375	-2.5896953125	0		2.977146484375	-0.1438481903076172	0		3.916382080078125	-0.3442711486816406	0		5.09111669921875	-0.1610155029296875	0		6.00772802734375	0.5059727172851562	0		-0.14489483642578124	5.90231787109375	0		
8.172990083694458E-4	-3.18246990442276E-4	0		0.49049188232421875	-2.4775634765625	0		-0.9965382690429687	0.051929428100585935	0		-0.6215797729492187	-2.614697021484375	0		2.975242919921875	-0.13180677795410156	0		3.9266181640625	-0.3224119567871094	0		5.08104248046875	-0.16088079833984376	0		6.00354541015625	0.498012939453125	0		-0.15907652282714843	5.89056591796875	0		
-0.0022758049964904784	-0.0032219018936157228	0		0.49041937255859375	-2.4775146484375	0		-1.0706951904296875	0.04504965209960937	0		-0.66979150390625	-2.623951416015625	0		2.94823681640625	-0.12839451599121093	0		3.93064990234375	-0.31645138549804686	0		5.0909609375	-0.16301539611816407	0		6.00327099609375	0.48201446533203124	0		-0.17698721313476562	5.896876953125	0		
7.399640083312988E-4	-2.0694799721240997E-4	0		0.4903747253417969	-2.4774599609375	0		-1.066664794921875	0.04905789947509766	0		-0.6311270751953125	-2.64444384765625	0		2.9442666015625	-0.12430082702636719	0		3.92206494140625	-0.28529605102539063	0		5.08403369140625	-0.15589456176757813	0		6.00447607421875	0.49801345825195314	0		-0.21105386352539063	5.8914228515625	0		
7.376440167427063E-4	-1.4644399285316468E-4	0		0.46747564697265626	-2.469073974609375	0		-1.0726090087890625	0.053209632873535154	0		-0.6742109985351562	-2.648764404296875	0		2.95647705078125	-0.10942955017089843	0		3.928802978515625	-0.3033552551269531	0		5.0922158203125	-0.14297755432128906	0		5.995234375	0.481171630859375	0		-0.14387353515625	5.901525390625	0		
7.605159878730774E-4	-8.590299636125565E-5	0		0.5173413696289062	-2.4797294921875	0		-0.9957225952148437	0.04317349624633789	0		-0.650414794921875	-2.664043212890625	0		2.95957080078125	-0.10442319488525391	0		3.95522265625	-0.2756838073730469	0		5.09710888671875	-0.1520061492919922	0		5.9952587890625	0.4812103576660156	0		-0.14382919311523437	5.90158642578125	0		
8.091620206832886E-4	-2.7581000700592995E-5	0		0.490416748046875	-2.4772861328125	0		-1.000601806640625	0.0483047103881836	0		-0.659527587890625	-2.674853759765625	0		2.963690185546875	-0.09942816162109375	0		3.929287841796875	-0.27426101684570314	0		5.09228662109375	-0.1428867645263672	0		6.003322265625	0.48214288330078126	0		-0.15891102600097656	5.89186083984375	0		
-0.0021585979461669924	-0.002930438995361328	0		0.5154308471679687	-2.481589599609375	0		-1.0005269775390624	0.04835900497436523	0		-0.6268148193359375	-2.700269287109375	0		2.93485400390625	-0.09296107482910156	0		3.918578125	-0.2590527648925781	0		5.08956201171875	-0.12879331970214844	0		5.99126953125	0.4733670959472656	0		-0.2108428955078125	5.89165869140625	0		
9.855009913444519E-4	7.383999973535538E-5	0		0.46363970947265626	-2.47379833984375	0		-1.066418701171875	0.04934999465942383	0		-0.6568798828125	-2.711791748046875	0		2.92794189453125	-0.09381108093261718	0		3.94069189453125	-0.25831710815429687	0		5.08553515625	-0.1376837615966797	0		6.00036962890625	0.47329043579101565	0		-0.21076022338867187	5.8907060546875	0		
0.006056283950805664	-0.003957834005355835	0		0.5217523193359375	-2.475587890625	0		-1.066290283203125	0.049387584686279296	0		-0.6587750854492187	-2.713724609375	0		2.910244140625	-0.08151028442382813	0		3.92335205078125	-0.22101710510253905	0		5.0828642578125	-0.12359400939941406	0		5.98861328125	0.4815111389160156	0		-0.17654527282714844	5.89725830078125	0		
0.001269595980644226	1.4342400431632997E-4	0		0.46393490600585935	-2.473726806640625	0		-1.0001416625976562	0.048470848083496096	0		-0.5968472290039063	-2.73058154296875	0		2.91924169921875	-0.09259976196289063	0		3.9194228515625	-0.2269183807373047	0		5.0881484375	-0.11462236022949218	0		5.99165283203125	0.473515625	0		-0.14432333374023437	5.90282958984375	0		
0.001451575994491577	1.6342900693416595E-4	0		0.5160208740234375	-2.48144775390625	0		-0.9999598388671875	0.048487037658691404	0		-0.6376935424804687	-2.73297705078125	0		2.888555908203125	-0.08312630462646485	0		3.918791748046875	-0.2138704833984375	0		5.07833203125	-0.11443998718261719	0		5.98383349609375	0.47367282104492187	0		-0.1583197021484375	5.89205029296875	0		
-0.0013838679790496827	-0.0027840819358825684	0		0.46231689453125	-2.475664794921875	0		-1.00885205078125	0.04162090301513672	0		-0.5987489013671875	-2.7525263671875	0		2.8757216796875	-0.08591706085205078	0		3.918999755859375	-0.21384243774414063	0		5.08341064453125	-0.12347694396972657	0		5.9927802734375	0.4555839538574219	0		-0.17705305480957031	5.89832958984375	0		
-0.001153027057647705	-0.002785813093185425	0		0.4625614318847656	-2.475663818359375	0		-1.0755003662109375	0.05057008361816406	0		-0.6476692504882813	-2.763830078125	0		2.84295654296875	-0.08543135070800781	0		3.9009482421875	-0.16355607604980468	0		5.074171875	-0.0863114013671875	0		5.97701025390625	0.4558440246582031	0		-0.2109371643066406	5.8928134765625	0		
0.0021426548957824707	1.58393993973732E-4	0		0.4648580322265625	-2.473702392578125	0		-0.99926953125	0.04846554565429687	0		-0.5764921875	-2.770860107421875	0		2.834239501953125	-0.08329828643798828	0		3.89798828125	-0.1785005187988281	0		5.08442431640625	-0.08643586730957031	0		5.985259765625	0.455753662109375	0		-0.17663780212402344	5.8983134765625	0		
0.0024166789054870606	1.3539600372314454E-4	0		0.517043212890625	-2.4814638671875	0		-1.0881295166015625	0.03970743560791016	0		-0.6531919555664063	-2.769787841796875	0		2.817401611328125	-0.09105899810791016	0		3.903734130859375	-0.14557240295410157	0		5.06781494140625	-0.07818328094482421	0		5.97753173828125	0.4558845520019531	0		-0.1764029083251953	5.8982890625	0		
0.0027099049091339113	1.0274600237607955E-4	0		0.49038565063476564	-2.47910791015625	0		-1.0218433227539063	0.0387252197265625	0		-0.5870567016601562	-2.782765625	0		2.833722412109375	-0.08929984283447266	0		3.886958740234375	-0.1503338623046875	0		5.07909326171875	-0.07933625030517578	0		5.97370751953125	0.447952880859375	0		-0.14404132080078125	5.9057978515625	0		
